<svg data-v-423bf9ae="" xmlns="http://www.w3.org/2000/svg" viewBox="0 0 285 183" class="iconLeft"><!----><!----><!----><g data-v-423bf9ae="" id="71659987-9a5f-42e3-b6d3-fedfdf71e4ec" fill="#1E2232" transform="matrix(6.349206477356088,0,0,6.349206477356088,183.79928586803157,61.084476470262636)"><path d="M4.52 6.58C4.52 5.85 4.33 5.28 3.92 4.84C3.96 4.80 3.99 4.77 4.03 4.73C4.47 4.30 4.62 3.60 4.62 2.73C4.62 0.85 4.02-0.01 2.30-0.01L0.53-0.01C0.25-0.01 0.03 0.21 0.03 0.49L0.03 8.92C0.03 9.20 0.25 9.42 0.53 9.42L0.92 9.42C1.19 9.42 1.41 9.20 1.41 8.92L1.41 5.49L2.04 5.49C2.73 5.49 3.12 5.88 3.12 6.58L3.12 8.92C3.12 9.20 3.35 9.42 3.63 9.42L4.02 9.42C4.30 9.42 4.52 9.20 4.52 8.92ZM1.41 1.39L2.30 1.39C3.02 1.39 3.23 1.78 3.23 2.73C3.23 3.68 2.83 4.07 2.04 4.07L1.41 4.07ZM5.56 6.69C5.56 7.80 5.87 8.44 6.30 8.88C6.76 9.32 7.34 9.44 7.87 9.44C8.37 9.44 8.96 9.32 9.42 8.88C9.86 8.44 10.15 7.80 10.15 6.69L10.15 6.50C10.15 6.22 9.93 5.99 9.66 5.99L9.25 5.99C8.97 5.99 8.75 6.22 8.75 6.50L8.75 6.69C8.75 7.20 8.68 7.57 8.51 7.80C8.39 7.94 8.13 8.05 7.87 8.05C7.27 8.05 6.97 7.63 6.97 6.69L6.97 2.73C6.97 1.79 7.28 1.39 7.87 1.39C8.44 1.39 8.75 1.79 8.75 2.73L8.75 2.93C8.75 3.21 8.97 3.43 9.25 3.43L9.66 3.43C9.93 3.43 10.15 3.21 10.15 2.93L10.15 2.73C10.15 1.67 9.86 0.97 9.41 0.55C8.95 0.13 8.39 0 7.87 0C7.34 0 6.78 0.13 6.31 0.55C5.87 0.97 5.56 1.67 5.56 2.73ZM12.49 3.53L12.49 0.50C12.49 0.22 12.26 0 11.98 0L11.59 0C11.31 0 11.09 0.22 11.09 0.50L11.09 8.93C11.09 9.21 11.31 9.44 11.59 9.44L11.98 9.44C12.26 9.44 12.49 9.21 12.49 8.93L12.49 6.16L12.66 5.91L14.53 9.18C14.60 9.31 14.83 9.44 14.97 9.44L15.41 9.44C15.83 9.44 16.06 9.04 15.86 8.68L13.51 4.54L15.85 0.77C16.07 0.41 15.85 0 15.41 0L14.94 0C14.80 0 14.59 0.13 14.52 0.24Z"></path></g><defs data-v-423bf9ae=""><linearGradient data-v-423bf9ae="" gradientTransform="rotate(25)" id="70a72960-0e07-4d68-994e-8cb5b0619c9f" x1="0%" y1="0%" x2="100%" y2="0%"><stop data-v-423bf9ae="" offset="0%" style="stop-color: rgb(120, 49, 146); stop-opacity: 1;"></stop><stop data-v-423bf9ae="" offset="100%" style="stop-color: rgb(89, 188, 200); stop-opacity: 1;"></stop></linearGradient></defs><g data-v-423bf9ae="" id="c2d9d5e1-dc81-4fff-83c9-a68347ef91ce" transform="matrix(1.4222125583224827,0,0,1.4222125583224827,-59.873874080604764,-50.22102872584884)" stroke="none" fill="url(#70a72960-0e07-4d68-994e-8cb5b0619c9f)"><path d="M94.532 112.865a14.042 14.042 0 0 1-1.554-.785 13.898 13.898 0 0 1-5.918-6.652c-.729-1.717-1.1-3.543-1.1-5.428s.37-3.711 1.101-5.43a13.892 13.892 0 0 1 5.917-6.651 13.835 13.835 0 0 1 1.552-.784 4 4 0 0 0-3.103-7.373 21.95 21.95 0 0 0-7.005 4.702A21.873 21.873 0 0 0 77.961 100c0 2.965.584 5.844 1.735 8.555a21.842 21.842 0 0 0 4.726 6.981 21.968 21.968 0 0 0 7.004 4.702 3.996 3.996 0 0 0 5.239-2.134 4.001 4.001 0 0 0-2.133-5.239zM115.579 84.465a21.9 21.9 0 0 0-7.008-4.703 4.003 4.003 0 0 0-5.238 2.135 4.001 4.001 0 0 0 2.137 5.238c.538.226 1.051.495 1.552.784a13.953 13.953 0 0 1 5.919 6.652c.729 1.717 1.098 3.544 1.098 5.43s-.369 3.713-1.098 5.427a13.957 13.957 0 0 1-5.919 6.654c-.501.288-1.015.558-1.554.784a4 4 0 0 0 3.106 7.373 21.959 21.959 0 0 0 7.004-4.701 21.907 21.907 0 0 0 4.727-6.982c1.15-2.711 1.734-5.589 1.734-8.555s-.584-5.844-1.734-8.558a21.92 21.92 0 0 0-4.726-6.978z"></path><path d="M146.647 110.11V89.89a14.921 14.921 0 0 0 6.605-3.827 14.836 14.836 0 0 0 4.4-10.583 14.85 14.85 0 0 0-4.4-10.584 14.935 14.935 0 0 0-10.605-4.375 14.926 14.926 0 0 0-10.518 4.298l-17.612-10.126c.31-1.207.487-2.455.487-3.733a14.85 14.85 0 0 0-4.4-10.584 14.935 14.935 0 0 0-10.605-4.375c-4.004 0-7.77 1.554-10.604 4.376a14.84 14.84 0 0 0-3.913 14.316L67.87 64.818a14.928 14.928 0 0 0-10.518-4.297 14.931 14.931 0 0 0-10.604 4.375 14.838 14.838 0 0 0-4.401 10.584 14.83 14.83 0 0 0 4.4 10.583 14.918 14.918 0 0 0 6.604 3.827v20.22a14.924 14.924 0 0 0-6.604 3.825 14.838 14.838 0 0 0-4.401 10.585c0 3.999 1.563 7.758 4.4 10.583a14.93 14.93 0 0 0 10.604 4.376c3.965 0 7.693-1.527 10.518-4.297l17.612 10.126a14.844 14.844 0 0 0 3.914 14.317A14.935 14.935 0 0 0 99.998 164c4.006 0 7.771-1.554 10.607-4.377a14.844 14.844 0 0 0 4.398-10.582c0-1.278-.177-2.527-.487-3.733l17.612-10.126a14.926 14.926 0 0 0 10.518 4.298 14.93 14.93 0 0 0 10.604-4.375c2.838-2.827 4.402-6.585 4.402-10.584s-1.564-7.758-4.402-10.584a14.899 14.899 0 0 0-6.603-3.827zm.957 19.327c-2.643 2.635-7.266 2.637-9.916-.002-1.318-1.313-2.045-3.058-2.045-4.914s.727-3.603 2.045-4.915a6.984 6.984 0 0 1 4.959-2.044c1.875 0 3.637.726 4.959 2.044 1.32 1.313 2.047 3.06 2.047 4.915s-.726 3.6-2.049 4.916zM95.04 153.956a6.896 6.896 0 0 1-2.045-4.915c0-1.856.727-3.603 2.045-4.915a6.985 6.985 0 0 1 4.959-2.045c1.875 0 3.637.727 4.959 2.043a6.898 6.898 0 0 1 2.047 4.917 6.895 6.895 0 0 1-2.045 4.914c-2.645 2.636-7.27 2.639-9.92.001zm4.959-19.875a14.935 14.935 0 0 0-10.518 4.298L71.87 128.254c.31-1.207.487-2.455.487-3.733 0-3.999-1.563-7.758-4.401-10.585a14.924 14.924 0 0 0-6.604-3.825V89.89a14.926 14.926 0 0 0 6.604-3.826 14.833 14.833 0 0 0 3.913-14.317L89.481 61.62a14.928 14.928 0 0 0 10.518 4.297c3.964 0 7.692-1.528 10.52-4.297l17.611 10.125a14.834 14.834 0 0 0 3.914 14.317 14.926 14.926 0 0 0 6.604 3.826v20.221a14.94 14.94 0 0 0-6.604 3.825 14.836 14.836 0 0 0-3.914 14.318l-17.611 10.125a14.943 14.943 0 0 0-10.52-4.296zm-47.606-4.646a6.89 6.89 0 0 1-2.046-4.914c0-1.856.727-3.602 2.046-4.915 1.323-1.318 3.085-2.044 4.959-2.044s3.636.726 4.959 2.043a6.893 6.893 0 0 1 2.046 4.916 6.892 6.892 0 0 1-2.045 4.914c-2.649 2.636-7.271 2.638-9.919 0zm-2.046-53.956c0-1.855.727-3.601 2.047-4.915 1.323-1.318 3.084-2.044 4.958-2.044s3.636.727 4.959 2.044a6.893 6.893 0 0 1 2.046 4.915 6.89 6.89 0 0 1-2.045 4.914c-2.648 2.637-7.27 2.639-9.92 0a6.884 6.884 0 0 1-2.045-4.914zM99.999 44c1.875 0 3.637.727 4.959 2.043a6.897 6.897 0 0 1 2.047 4.916 6.896 6.896 0 0 1-2.045 4.915c-2.645 2.637-7.27 2.638-9.92.001a6.896 6.896 0 0 1-2.045-4.916c0-1.855.727-3.602 2.045-4.914A6.985 6.985 0 0 1 99.999 44zm42.648 24.521c1.875 0 3.637.727 4.959 2.043a6.897 6.897 0 0 1 2.047 4.916 6.892 6.892 0 0 1-2.045 4.914c-2.646 2.637-7.27 2.639-9.92 0-1.318-1.313-2.045-3.058-2.045-4.914s.727-3.602 2.045-4.914a6.983 6.983 0 0 1 4.959-2.045z"></path></g><!----></svg>