<svg data-v-423bf9ae="" xmlns="http://www.w3.org/2000/svg" viewBox="0 0 100.9924288349541 60" class="font"><!----><!----><!----><g data-v-423bf9ae="" id="7e2fdad6-2450-45cc-8aee-2dd4d65b9e43" fill="black" transform="matrix(6.349206477356088,0,0,6.349206477356088,-0.19047548450748764,0.06349182060443326)"><path d="M4.52 6.58C4.52 5.85 4.33 5.28 3.92 4.84C3.96 4.80 3.99 4.77 4.03 4.73C4.47 4.30 4.62 3.60 4.62 2.73C4.62 0.85 4.02-0.01 2.30-0.01L0.53-0.01C0.25-0.01 0.03 0.21 0.03 0.49L0.03 8.92C0.03 9.20 0.25 9.42 0.53 9.42L0.92 9.42C1.19 9.42 1.41 9.20 1.41 8.92L1.41 5.49L2.04 5.49C2.73 5.49 3.12 5.88 3.12 6.58L3.12 8.92C3.12 9.20 3.35 9.42 3.63 9.42L4.02 9.42C4.30 9.42 4.52 9.20 4.52 8.92ZM1.41 1.39L2.30 1.39C3.02 1.39 3.23 1.78 3.23 2.73C3.23 3.68 2.83 4.07 2.04 4.07L1.41 4.07ZM5.56 6.69C5.56 7.80 5.87 8.44 6.30 8.88C6.76 9.32 7.34 9.44 7.87 9.44C8.37 9.44 8.96 9.32 9.42 8.88C9.86 8.44 10.15 7.80 10.15 6.69L10.15 6.50C10.15 6.22 9.93 5.99 9.66 5.99L9.25 5.99C8.97 5.99 8.75 6.22 8.75 6.50L8.75 6.69C8.75 7.20 8.68 7.57 8.51 7.80C8.39 7.94 8.13 8.05 7.87 8.05C7.27 8.05 6.97 7.63 6.97 6.69L6.97 2.73C6.97 1.79 7.28 1.39 7.87 1.39C8.44 1.39 8.75 1.79 8.75 2.73L8.75 2.93C8.75 3.21 8.97 3.43 9.25 3.43L9.66 3.43C9.93 3.43 10.15 3.21 10.15 2.93L10.15 2.73C10.15 1.67 9.86 0.97 9.41 0.55C8.95 0.13 8.39 0 7.87 0C7.34 0 6.78 0.13 6.31 0.55C5.87 0.97 5.56 1.67 5.56 2.73ZM12.49 3.53L12.49 0.50C12.49 0.22 12.26 0 11.98 0L11.59 0C11.31 0 11.09 0.22 11.09 0.50L11.09 8.93C11.09 9.21 11.31 9.44 11.59 9.44L11.98 9.44C12.26 9.44 12.49 9.21 12.49 8.93L12.49 6.16L12.66 5.91L14.53 9.18C14.60 9.31 14.83 9.44 14.97 9.44L15.41 9.44C15.83 9.44 16.06 9.04 15.86 8.68L13.51 4.54L15.85 0.77C16.07 0.41 15.85 0 15.41 0L14.94 0C14.80 0 14.59 0.13 14.52 0.24Z"></path></g><!----><!----></svg>