<svg width="60" height="60" viewBox="0 0 60 60" fill="none" xmlns="http://www.w3.org/2000/svg">
<rect width="60" height="60" rx="18" fill="#24174C"/>
<path d="M25.3242 21.8489L22.3711 21.8701L12.5273 12L17.3086 12.0141C21.8086 12.0352 22.1039 12.0423 22.3359 12.1691C22.7156 12.3663 29.318 19.0239 29.4797 19.362C29.6625 19.7636 29.6555 20.4681 29.4586 20.8415C29.2688 21.2078 28.9172 21.5389 28.5586 21.701C28.3055 21.8137 27.9891 21.8278 25.3242 21.8489Z" fill="white"/>
<path d="M34.2328 15.6141C36.9258 12.9229 37.7555 12.1339 37.9453 12.0845C38.093 12.0423 40.0266 12.007 42.8672 12.007L47.543 12L37.6992 21.8701L34.7461 21.8489C32.0813 21.8278 31.7648 21.8137 31.5117 21.701C31.1531 21.5389 30.8016 21.2008 30.6117 20.8415C30.4078 20.454 30.4078 19.7495 30.6117 19.362C30.7031 19.193 32.1867 17.6571 34.2328 15.6141Z" fill="white"/>
<path d="M12 17.2063C12 20.5526 12.0211 21.9616 12.0844 22.173C12.1547 22.4196 12.6609 22.962 15.6141 25.935C17.8852 28.2176 19.1648 29.4505 19.3477 29.5421C20.2336 29.9718 21.2039 29.6477 21.6539 28.7742L21.8438 28.3867V22.3914L12 12.5284V17.2063Z" fill="white"/>
<path d="M38.5316 28.865C38.2969 28.5244 38.2969 28.0214 38.2969 25.3362V22.3209L47.9649 12.634L47.9859 17.3331C47.993 19.9256 47.9859 22.1166 47.9649 22.2153C47.9086 22.4548 41.1024 29.2885 40.7227 29.4928C40.5188 29.5984 40.3149 29.6407 39.9844 29.6407C39.457 29.6407 39.0984 29.4857 38.7399 29.1053L38.7343 29.0994C38.6523 29.0134 38.5857 28.9435 38.5316 28.865Z" fill="white"/>
<path d="M19.3898 30.5988C19.0172 30.775 12.5133 37.2211 12.225 37.7143L12.0352 38.0313L12.0141 42.7867L12 47.5421L12.8578 46.6967C13.3359 46.2317 15.5508 44.0266 17.7797 41.8004L21.8438 37.7495V34.7906C21.8367 31.6063 21.8297 31.5569 21.4641 31.0708C21.0352 30.5072 20.0789 30.2888 19.3898 30.5988Z" fill="white"/>
<path d="M38.3953 31.4231C38.5711 31.0638 38.8945 30.7468 39.2461 30.5918C39.6328 30.4157 40.2797 30.4227 40.6875 30.6059C41.1023 30.789 47.6273 37.3127 47.8523 37.7636C48 38.0595 48 38.1299 48 42.8008V47.5421L38.2266 37.7495L38.2406 34.7202C38.2617 31.9092 38.2688 31.6697 38.3953 31.4231Z" fill="white"/>
<path d="M22.3711 38.2708L12.668 48H22.3641L25.8375 44.5268C27.8344 42.5331 29.3742 40.9409 29.4586 40.7789C29.6555 40.4055 29.6625 39.6939 29.4797 39.3135C29.3109 38.9683 29.0086 38.6654 28.6359 38.4681C28.3555 38.3136 28.2918 38.3131 25.3855 38.2922L22.3711 38.2708Z" fill="white"/>
<path d="M30.5906 39.3346C30.8578 38.8204 31.3219 38.447 31.8281 38.3413C31.9617 38.3131 33.3398 38.292 34.8867 38.2849L37.6992 38.2779L47.4023 48H37.7063L34.2328 44.5268C32.1867 42.4838 30.7031 40.9479 30.6117 40.7789C30.4219 40.4125 30.4078 39.6869 30.5906 39.3346Z" fill="white"/>
</svg>
